<?xml version="1.0" standalone="no"?>
<!DOCTYPE svg PUBLIC "-//W3C//DTD SVG 20010904//EN"
 "http://www.w3.org/TR/2001/REC-SVG-20010904/DTD/svg10.dtd">
<svg version="1.0" xmlns="http://www.w3.org/2000/svg"
 width="260.000000pt" height="260.000000pt" viewBox="0 0 260.000000 260.000000"
 preserveAspectRatio="xMidYMid meet">
<metadata>
Created by potrace 1.11, written by Peter Selinger 2001-2013
</metadata>
<g transform="translate(0.000000,260.000000) scale(0.100000,-0.100000)"
fill="#000000" stroke="none">
<path d="M0 1300 l0 -1300 1300 0 1300 0 0 1300 0 1300 -1300 0 -1300 0 0
-1300z m1456 835 c303 -71 476 -360 450 -750 -10 -137 -31 -225 -78 -325 -53
-111 -142 -202 -245 -251 -64 -31 -70 -37 -61 -54 17 -31 61 -75 90 -91 38
-20 136 -17 210 6 34 11 64 20 66 20 1 0 2 -58 2 -129 l0 -128 -47 -14 c-27
-8 -89 -14 -138 -14 -82 0 -97 3 -157 33 -77 38 -148 109 -223 225 -48 73 -52
77 -95 82 -155 20 -252 60 -342 143 -110 101 -172 228 -199 402 -15 95 -6 323
16 410 20 80 72 190 119 250 66 85 181 157 294 185 76 18 261 18 338 0z"/>
<path d="M1200 1916 c-124 -33 -213 -140 -246 -295 -18 -87 -18 -269 1 -349
55 -234 233 -347 445 -283 62 19 81 31 125 76 35 35 60 74 78 117 74 185 56
461 -40 606 -77 115 -222 166 -363 128z"/>
</g>
</svg>
